<?xml version="1.0" encoding="UTF-8" standalone="no"?>
<!-- Created with Inkscape (http://www.inkscape.org/) -->

<svg
   xmlns:dc="http://purl.org/dc/elements/1.1/"
   xmlns:cc="http://creativecommons.org/ns#"
   xmlns:rdf="http://www.w3.org/1999/02/22-rdf-syntax-ns#"
   xmlns:svg="http://www.w3.org/2000/svg"
   xmlns="http://www.w3.org/2000/svg"
   xmlns:sodipodi="http://sodipodi.sourceforge.net/DTD/sodipodi-0.dtd"
   xmlns:inkscape="http://www.inkscape.org/namespaces/inkscape"
   width="646.0025"
   height="797.13324"
   id="svg4854"
   version="1.1"
   inkscape:version="0.48.4 r9939"
   sodipodi:docname="Nytt dokument 42">
  <defs
     id="defs4856" />
  <sodipodi:namedview
     id="base"
     pagecolor="#ffffff"
     bordercolor="#666666"
     borderopacity="1.0"
     inkscape:pageopacity="0.0"
     inkscape:pageshadow="2"
     inkscape:zoom="0.35"
     inkscape:cx="571.44662"
     inkscape:cy="438.29786"
     inkscape:document-units="px"
     inkscape:current-layer="layer1"
     showgrid="false"
     fit-margin-top="0"
     fit-margin-left="0"
     fit-margin-right="0"
     fit-margin-bottom="0"
     inkscape:window-width="1366"
     inkscape:window-height="705"
     inkscape:window-x="-8"
     inkscape:window-y="-8"
     inkscape:window-maximized="1" />
  <metadata
     id="metadata4859">
    <rdf:RDF>
      <cc:Work
         rdf:about="">
        <dc:format>image/svg+xml</dc:format>
        <dc:type
           rdf:resource="http://purl.org/dc/dcmitype/StillImage" />
        <dc:title></dc:title>
      </cc:Work>
    </rdf:RDF>
  </metadata>
  <g
     inkscape:label="Layer 1"
     inkscape:groupmode="layer"
     id="layer1"
     transform="translate(196.44662,-173.52683)">
    <path
       style="fill:#000000"
       d="m 323.99486,969.75585 c -6.56805,-0.84029 -12.51213,-4.29561 -18.61683,-10.82203 -4.87598,-5.21282 -9.87478,-14.35818 -9.03882,-16.53665 0.25634,-0.668 -0.13157,-1.71054 -0.86201,-2.31676 -1.15864,-0.96159 -181.02721,-1.70351 -314.83473,-1.29862 l -26.57179,0.0804 -1.38607,6.64209 c -0.76234,3.65314 -2.75842,8.94064 -4.43572,11.75 -2.55548,4.28021 -4.17106,5.66302 -9.97007,8.53358 -9.13324,4.52104 -19.95771,5.44489 -26.24062,2.23959 -7.64035,-3.89782 -10.00015,-6.67499 -12.69702,-14.94276 -1.38546,-4.24737 -2.65579,-8.8475 -2.82297,-10.2225 -0.29391,-2.41743 -0.55167,-2.5 -7.80395,-2.5 l -7.5,0 -0.30412,3 c -1.15558,11.39921 -8.91968,18.27829 -23.23119,20.58309 -6.54641,1.05427 -12.0695,-0.40018 -17.63259,-4.64336 -4.47868,-3.41605 -5.59506,-5.8117 -6.26296,-13.43973 l -0.56914,-6.5 -3.5,-0.23582 c -1.925,-0.12971 -6.56148,-0.76891 -10.30328,-1.42046 -5.42813,-0.94518 -7.16872,-1.70604 -8.61119,-3.76418 -3.40275,-4.85506 -4.35646,-9.89175 -3.87653,-20.47247 0.73131,-16.12237 3.06415,-19.03567 16.93349,-21.14682 5.14663,-0.78341 9.69501,-1.43245 10.10751,-1.44231 0.96686,-0.0231 0.95322,-12.16368 -0.0153,-13.63094 -0.40408,-0.61215 -5.00969,-1.43759 -10.23469,-1.8343 -9.3754,-0.71183 -14.75228,-2.34437 -17.12077,-5.19821 -2.40238,-2.8947 -3.71511,-13.96579 -2.68674,-22.65915 1.22749,-10.37671 3.74848,-15.45303 11.0592,-22.26896 5.90282,-5.50334 10.10089,-7.8391 16.11811,-8.96793 l 3.32017,-0.62287 0.10374,-101.66779 c 0.0815,-79.85258 0.24491,-375.76281 0.21307,-385.8065 -0.005,-1.66439 -0.8103,-2.28945 -3.62989,-2.81841 -3.68535,-0.69137 -4.21179,-0.89655 -10.37689,-4.04433 -5.3754,-2.74458 -7.92661,-5.46218 -11.26392,-11.99855 -2.75242,-5.39084 -3.06181,-6.91375 -3.04734,-15 0.015,-8.39341 0.23544,-9.35614 3.27047,-14.28416 3.80048,-6.17088 7.22245,-8.18605 18.29079,-10.77133 l 7.75,-1.8102 0,-7.31716 c 0,-5.02622 -0.37587,-7.31716 -1.20052,-7.31716 -0.66029,0 -3.83911,-0.78329 -7.06405,-1.74065 -4.994,-1.48252 -6.42887,-2.4835 -9.67583,-6.75 -4.65349,-6.11465 -6.25278,-10.83222 -6.42671,-18.95731 -0.11326,-5.29137 0.31017,-6.92092 2.86711,-11.03388 4.32284,-6.95347 7.21651,-8.74824 15.21203,-9.43506 l 6.78797,-0.5831 0.663,-8.69842 c 0.86095,-11.29552 2.51927,-14.15598 9.8093,-16.92022 4.61704,-1.75069 6.92803,-2.00566 14.0277,-1.54762 4.675,0.3016 10.3,1.17784 12.5,1.94719 4.48188,1.56733 8.5,6.54745 8.5,10.53504 0,1.38611 0.49619,5.36957 1.10265,8.85212 l 1.10266,6.33191 6.92873,0 c 4.6657,0 7.05771,-0.40827 7.32364,-1.25 0.21719,-0.6875 0.66136,-4.69411 0.98702,-8.90358 1.36578,-17.65381 5.57592,-21.42259 23.64937,-21.17017 7.48541,0.10455 10.72959,0.62248 14.76047,2.35652 8.87865,3.81949 19.85464,17.62459 20.47984,25.75861 l 0.20038,2.60696 168.37509,-0.17497 c 92.6063,-0.0962 168.63915,-0.43903 168.96188,-0.76177 0.32274,-0.32274 1.54271,-3.42506 2.71106,-6.89405 3.00145,-8.91178 6.64327,-13.11676 14.91721,-17.22394 6.26844,-3.11165 7.88832,-3.4827 15.5,-3.5504 7.60162,-0.0676 8.98346,0.21798 13.07423,2.70214 6.14216,3.72989 8.48998,7.47579 11.16057,17.80649 l 2.24856,8.69816 6.78971,0 c 4.58348,0 6.90035,-0.40617 7.13022,-1.25 2.8165,-10.33882 4.12673,-13.35205 6.94342,-15.96835 10.17714,-9.45307 24.66263,-10.99941 35.18977,-3.75655 4.80117,3.30329 6.46352,6.92069 6.46352,14.06511 0,2.63547 0.46619,5.07988 1.03598,5.43203 0.56979,0.35215 5.12666,1.024 10.12637,1.49299 7.85043,0.73641 9.46948,1.21592 11.86964,3.51542 3.42715,3.28342 4.96801,9.09285 4.96801,18.73067 0,9.26052 -2.11071,16.51251 -5.84819,20.09324 -2.33111,2.23335 -4.33278,2.96112 -10.27351,3.73527 -10.75111,1.401 -11.62107,1.92594 -11.74105,7.08455 -0.0553,2.37909 0.15191,5.56312 0.46053,7.07562 0.54047,2.64873 0.79255,2.75001 6.84519,2.75001 20.39805,0 25.66478,5.75315 24.15756,26.38868 -0.85301,11.67874 -3.63505,17.6899 -11.41156,24.65693 -6.02048,5.39379 -13.46928,9.44454 -15.75464,8.56756 -0.75365,-0.2892 -1.62324,-0.11653 -1.93241,0.38372 -0.62361,1.00902 -0.70535,488.13301 -0.082,488.75635 0.21533,0.21533 1.89644,0.62693 3.7358,0.91466 13.54775,2.11929 21.95346,12.56471 23.36893,29.03959 0.64449,7.50129 0.54442,8.03263 -2.67756,14.21755 -3.76268,7.22284 -7.57904,9.81985 -17.70951,12.05123 -3.10066,0.68296 -6.20007,1.40357 -6.88757,1.60136 -0.855,0.24597 -1.25,2.69816 -1.25,7.76014 l 0,7.40055 3.59032,0.58262 c 5.68282,0.9222 12.40968,3.82024 12.40968,5.3463 0,0.76754 0.73047,1.67584 1.62326,2.01843 2.4967,0.95808 6.29058,10.60707 6.98619,17.768 0.52907,5.44655 0.27859,7.14615 -1.63603,11.10123 -4.2996,8.8818 -7.63732,10.99365 -18.47342,11.68858 l -4,0.25652 -0.64181,9.11358 c -0.89928,12.76962 -2.44841,15.07753 -11.85819,17.66641 -7.89885,2.17318 -22.38137,0.99071 -27.73403,-2.26444 -4.22333,-2.56836 -5.86827,-6.10926 -6.74326,-14.51555 -1.069,-10.27011 -1.3494,-10.58414 -8.79826,-9.85323 -3.42345,0.33593 -6.51327,0.89032 -6.86627,1.232 -0.353,0.34168 -0.90307,4.94674 -1.22238,10.23347 -0.3193,5.28674 -0.99524,10.68674 -1.50208,12 -1.69445,4.39049 -5.48158,6.89387 -12.02271,7.94729 -6.34079,1.02115 -8.72564,0.99896 -17.83041,-0.16587 z m 21.42062,-3.99107 c 5.23269,-2.5331 5.99573,-3.82182 6.79165,-11.47063 0.72658,-6.98235 0.64508,-44.39973 -0.0993,-45.60421 -0.67125,-1.08609 -6.51282,-1.03833 -8.25835,0.0675 -1.12071,0.71002 -1.23749,4.71398 -0.65292,22.38761 0.69467,21.00255 0.66117,21.57366 -1.3852,23.62003 -1.15339,1.15339 -3.10958,2.14267 -4.34708,2.1984 -10.69279,0.48149 -18.54387,-2.06916 -23.74834,-7.71534 -2.44704,-2.65468 -4.00168,-5.31379 -4.00168,-6.84455 0,-2.70543 -2.73909,-3.99839 -7.14829,-3.37428 -5.51809,0.78107 -1.62361,10.97546 7.48315,19.58825 6.27552,5.93513 8.65653,7.07222 17.16514,8.19751 10.13942,1.34096 13.68409,1.13642 18.20122,-1.05029 z m -410.92762,-1.62036 c 5.89343,-1.85774 10.84517,-6.73223 13.64427,-13.43141 2.11935,-5.07233 3.92161,-20.3053 3.16451,-26.747 -1.43332,-12.19531 -9.89391,-19.72821 -29.92831,-26.64671 -8.59929,-2.9696 -12.01353,-2.93986 -12.44945,0.10843 -0.5119,3.57963 1.53215,7.43446 3.94217,7.43446 3.66309,0 14.91024,4.97904 20.3878,9.02555 7.04187,5.20214 8.82537,9.21949 8.03468,18.09823 -0.68994,7.74737 -3.69103,16.77145 -6.38987,19.21387 -2.55952,2.31633 -10.07049,4.82769 -14.37666,4.80696 -6.66247,-0.0321 -9.0253,-2.36839 -11.16627,-11.041 -1.11455,-4.5148 -1.21364,-4.60361 -5.13647,-4.60361 l -4,0 0.29313,4 c 0.16122,2.2 1.23916,6.61577 2.39542,9.81282 1.85264,5.12255 2.70847,6.16051 7.20687,8.74062 4.28553,2.45801 6.21366,2.9293 12.01669,2.93718 3.80166,0.005 9.36433,-0.76362 12.36149,-1.70839 z m 474.90065,-3.2252 c 6.07724,-3.7056 6.76307,-6.88758 6.79617,-31.53142 l 0.0296,-22.02561 -5,-0.29267 -5,-0.29268 -0.10154,22.1085 c -0.11355,24.72225 -0.11477,24.72673 -7.04664,25.65649 -4.90006,0.65723 -10.59873,-1.60065 -12.8985,-5.11054 -0.93624,-1.42888 -1.93241,-4.63998 -2.21373,-7.13579 -0.50796,-4.5066 -0.53589,-4.53575 -4.05936,-4.23557 -2.97712,0.25363 -3.68459,0.78489 -4.39763,3.30226 -0.46736,1.65 -0.5695,5.42452 -0.22699,8.38782 0.50137,4.33774 1.23878,5.95189 3.78357,8.282 4.1518,3.80155 7.3372,4.63229 18.16082,4.73625 7.2447,0.0696 9.61909,-0.29103 12.17425,-1.84904 z m -543.71549,-2.531 c 5.22781,-3.30017 9.24754,-7.36965 10.87726,-11.01188 0.88016,-1.96704 1.52945,-9.38838 1.9029,-21.75 l 0.56688,-18.76415 -6.03024,0 -6.03025,0 0.49837,15.25 c 0.76187,23.3132 -0.76721,26.50057 -13.19157,27.49788 -6.17369,0.49556 -6.46818,0.41639 -6.93701,-1.86517 -0.26928,-1.31049 -0.73792,-3.56644 -1.04142,-5.01322 -0.60797,-2.89824 -2.75421,-3.83731 -6.57368,-2.87626 -2.34148,0.58917 -2.49401,1.01894 -2.4056,6.77796 0.1101,7.17122 0.82926,8.26439 7.68415,11.68033 7.02533,3.50087 15.20583,3.53034 20.68021,0.0745 z m 72.60723,-22.93294 c 0.34611,-1.37899 0.22917,-3.70762 -0.25987,-5.17472 l -0.88915,-2.66745 -22.95848,0.10681 c -12.62717,0.0588 -25.09599,0.11479 -27.70849,0.12454 l -4.75,0.0177 0,4.46502 0,4.46501 10.25,0.28499 c 5.6375,0.15674 18.22326,0.42006 27.96835,0.58516 l 17.71836,0.30018 0.62928,-2.50727 z m -74.07629,-2.53214 c 0.37053,-2.19316 0.38537,-4.45407 0.033,-5.02425 -0.3914,-0.6333 -6.16268,-1.05379 -14.8317,-1.08061 -7.80504,-0.0241 -17.54093,-0.43165 -21.63532,-0.90554 -9.14409,-1.05835 -10.3898,-2.31326 -9.79699,-9.86929 0.57138,-7.28292 4.17764,-10.97186 11.5834,-11.84896 l 5.25873,-0.62282 -0.3004,-4.10474 -0.3004,-4.10474 -5.20488,-0.30069 c -8.08209,-0.46692 -12.90612,1.24695 -15.74248,5.59294 -2.87041,4.39817 -4.34948,11.78923 -3.92668,19.62207 0.35986,6.66687 1.8661,10.16003 5.55926,12.89263 3.69468,2.73373 7.238,3.15193 29.37789,3.4673 l 19.2529,0.27424 0.67369,-3.98754 z m 372.0103,2.97774 c 40.15,-0.0235 76.375,0.03 80.5,0.11901 4.125,0.089 11.2125,0.0899 15.75,0.002 l 8.25,-0.1597 0,-5.04181 c 0,-3.54044 -0.55615,-5.63877 -1.86762,-7.04647 -1.7688,-1.89859 -2.73437,-1.97345 -18.25,-1.41491 -9.01031,0.32436 -94.65255,0.80294 -190.31609,1.06351 -95.66354,0.26057 -174.06159,0.60165 -174.2179,0.75796 -0.15631,0.15631 -0.58534,2.84644 -0.9534,5.97808 l -0.66921,5.69389 99.38711,0.25488 c 54.66291,0.14018 101.63711,0.16071 104.38711,0.0456 2.75,-0.11509 37.85,-0.22851 78,-0.25206 z m 168.23455,-5.6093 c 0.48688,-7.46367 0.45646,-7.47327 -24.45031,-7.71658 l -21.78424,-0.21281 -0.30448,6.5 -0.30448,6.5 23.27363,-0.26459 23.27363,-0.26458 0.29625,-4.54144 z m 29.86258,2.06439 c 4.28139,-4.28139 6.23209,-9.97276 5.846,-17.05634 -0.37053,-6.79819 -2.67603,-11.54468 -8.07978,-16.63439 -5.35486,-5.04368 -8.72795,-5.76925 -26.35462,-5.66904 -8.88602,0.0505 -17.02318,0.31851 -18.08257,0.59555 -2.03416,0.53195 -2.38839,2.70927 -1.31441,8.07918 l 0.61175,3.05874 18.2979,-0.18374 c 18.18872,-0.18264 18.31041,-0.16937 20.39211,2.22371 2.24427,2.57998 4.40666,9.19152 3.88764,11.88656 -0.19018,0.98756 -2.15764,2.16341 -4.93007,2.94645 -4.33605,1.22467 -4.64571,1.54261 -5.14769,5.28518 -0.95809,7.14305 -0.28687,7.97436 6.4387,7.97436 4.99467,0 6.3237,-0.39488 8.43504,-2.50622 z m -587.09713,-31.99378 0,-24 -3.88178,-0.31822 c -2.13498,-0.17502 -4.27483,0.0748 -4.75523,0.55523 -0.63225,0.63225 -1.33117,37.64908 -0.89813,47.56778 0.0193,0.44264 2.17264,0.66764 4.78514,0.5 l 4.75,-0.30479 0,-24 z m 61.04685,22.23851 c 0.26624,-0.69382 -0.004,-6.65632 -0.601,-13.25 -0.59679,-6.59368 -1.21784,-13.78851 -1.38009,-15.98851 -0.48543,-6.58171 -2.38609,-15.25187 -4.04802,-18.46569 -2.21635,-4.28596 -5.26272,-5.9338 -12.33674,-6.67318 l -6.181,-0.64604 0,4.40773 c 0,4.38393 0.0269,4.41731 4.98373,6.17781 2.74106,0.97353 5.4527,2.64633 6.02588,3.71733 1.27898,2.3898 2.63656,13.65066 3.51722,29.17479 0.66286,11.68469 0.66514,11.69303 3.31824,12.10017 5.12687,0.78675 6.22189,0.69616 6.70178,-0.55441 z m 389.95217,-7.32603 c 3.18462,-6.50913 8.6302,-12.19589 15.18893,-15.86164 4.41349,-2.46674 21.03624,-8.70074 26.56205,-9.96151 2.15522,-0.49173 2.75,-1.2039 2.75,-3.29278 0,-1.46594 0.73633,-5.28959 1.63628,-8.49701 2.62983,-9.37262 5.41428,-11.18632 22.11372,-14.4041 1.37043,-0.26406 2.25,-1.15986 2.25,-2.2915 0,-2.89086 5.92757,-21.44114 7.07863,-22.15254 0.56482,-0.34907 0.93175,-1.04344 0.8154,-1.54304 -0.30212,-1.29729 1.26707,-4.78 2.53303,-5.62189 0.59012,-0.39243 1.07429,-1.06743 1.07593,-1.5 0.002,-0.43256 1.35165,-2.48335 3,-4.55731 3.3703,-4.24052 9.04698,-8.32712 12.91609,-9.29821 l 2.58092,-0.64777 0.009,-129.64159 c 0.005,-71.30287 0.0455,-180.26659 0.0899,-242.14159 0.0445,-61.875 0.0404,-113.19783 -0.009,-114.05073 -0.0495,-0.85291 -2.00243,-2.49387 -4.33993,-3.64658 -7.63605,-3.76564 -12.49329,-8.88967 -16.72531,-17.64397 -4.1982,-8.68434 -7.50697,-18.45122 -8.60784,-25.40872 -0.36986,-2.3375 -1.06495,-4.25 -1.54466,-4.25 -0.4797,0 -0.87219,0.45 -0.87219,1 0,1.29796 -4.49171,1.26885 -9.27733,-0.0601 -8.04389,-2.23384 -13.72264,-10.75287 -13.72264,-20.58623 0,-2.18284 -0.62627,-3.61848 -1.86852,-4.28331 -1.02768,-0.55 -2.09011,-0.77841 -2.36095,-0.50757 -1.47971,1.47971 -27.77053,-8.63314 -27.77053,-10.68203 0,-0.48442 -0.68257,-0.88077 -1.51682,-0.88077 -2.28492,0 -9.84613,-8.37526 -12.57485,-13.92867 l -2.40833,-4.90136 -28.5,-0.37643 c -15.675,-0.20704 -90.81154,-0.47932 -166.97008,-0.60507 -79.38977,-0.13109 -138.85042,-0.60897 -139.3615,-1.12005 -0.52188,-0.52188 -2.32156,1.9673 -4.34133,6.00458 -1.89745,3.79279 -4.88478,8.33335 -6.6385,10.09013 -5.02578,5.03453 -30.15921,15.83687 -36.8471,15.83687 -3.25007,0 -4.08297,0.90138 -2.39377,2.59058 1.03405,1.03405 1.12877,2.3598 0.40229,5.63095 -2.25253,10.14266 -7.3022,15.03562 -16.85001,16.3271 -8.26017,1.11731 -9.26127,1.70412 -9.66781,5.667 -0.9914,9.66393 -10.21081,28.62067 -16.98881,34.93199 -3.34737,3.11689 -10.12793,6.85239 -12.43825,6.85239 -1.45062,0 -1.67925,3.13051 -2.13627,29.25 -0.28149,16.0875 -0.59362,126.5625 -0.69364,245.5 l -0.18184,216.25 2.34965,0 c 2.96918,0 11.74747,5.55578 15.01027,9.5 4.95303,5.98744 12.90844,25.09823 13.94057,33.48857 0.26163,2.12685 1.1923,2.72721 6.40266,4.13026 13.51528,3.63941 16.69987,6.88223 18.74317,19.08586 1.20761,7.21249 1.24513,7.2754 4.68883,7.86412 4.02696,0.68843 16.55419,5.15 21.24821,7.56755 7.4265,3.82485 15.47068,11.04073 18.20706,16.33231 0.80827,1.56302 2.13451,3.50678 2.94721,4.31948 1.29056,1.29056 22.9258,1.49886 170.88126,1.64524 l 169.40362,0.1676 2.78313,-5.68851 z m 18.61547,-0.38108 c 7.79272,-6.83307 23.52312,-10.5171 46.63551,-10.92193 l 6.25,-0.10947 0,-4.89301 c 0,-3.5393 -0.43762,-5.06094 -1.58179,-5.5 -2.96899,-1.13931 -17.40089,-0.60981 -26.66777,0.97843 -16.99719,2.91313 -27.58594,7.46211 -35.64755,15.31437 -6.98756,6.80609 -6.786,8.10021 1.2616,8.10021 5.62974,0 6.75534,-0.34271 9.75,-2.9686 z m 65.30806,-5.0314 c -0.0426,-4.125 -0.15509,-13.0125 -0.25,-19.75 l -0.17255,-12.25 -2.91821,0 c -6.27784,0 -6.09505,-0.62823 -6.01114,20.65992 l 0.0766,19.44365 4.67636,-0.30179 4.67639,-0.30178 -0.0774,-7.5 z m -488.20115,-7.89671 c 0.20787,-0.88181 0.12645,-2.95329 -0.18093,-4.60329 l -0.55886,-3 -21.24081,-0.26989 -21.2408,-0.26989 0,4.48816 0,4.48815 11.75,0.28173 c 28.46761,0.68259 31.0694,0.59041 31.4714,-1.11497 z m -15.07244,-13.35329 c 1.30942,-19.77868 -1.17658,-36.72878 -7.64179,-52.10336 -3.17269,-7.54483 -15.33116,-18.10952 -18.55119,-16.11944 -0.52579,0.32496 -0.95598,3.23395 -0.95598,6.46443 0,4.79102 0.33379,5.97954 1.81101,6.44839 3.78162,1.20024 7.98696,7.11193 10.67551,15.00719 3.01766,8.86173 4.3806,20.60893 3.9219,33.80279 l -0.30421,8.75 5.44789,0 c 4.93887,0 5.46182,-0.21023 5.59686,-2.25 z m 536.59393,-27.44675 c -0.27124,-32.13552 0.20758,-30.26694 -7.39052,-28.84153 l -3.4479,0.64683 0.57654,8.19572 c 0.31709,4.50765 0.74038,16.8232 0.94064,27.3679 0.20026,10.54469 0.60844,19.56751 0.90708,20.0507 0.29863,0.4832 2.36864,0.98627 4.60001,1.11793 l 4.05705,0.23938 -0.2429,-28.77693 z m -59.59694,24.94675 c 2.51804,-6.27757 3.50494,-7.62236 6.51844,-8.88228 4.54892,-1.90188 15.10293,-3.30293 28.33561,-3.76157 l 11.5,-0.39858 0.30751,-5.25522 0.30751,-5.25522 -11.30751,0.62196 c -10.43168,0.57378 -19.52367,1.8845 -32.33523,4.6615 -2.76524,0.59939 -6.20404,2.08646 -7.64177,3.3046 -3.14803,2.66723 -5.73075,10.03442 -5.07769,14.48405 0.44163,3.00898 0.74245,3.23076 4.38212,3.23076 3.32913,0 4.07132,-0.40731 5.01101,-2.75 z m -499.45159,-13.25 8.41522,0 -0.30479,-4.73385 -0.30479,-4.73385 -21.83734,-0.0162 c -21.73398,-0.0161 -21.84638,-0.0273 -23.75,-2.37693 -2.55326,-3.15148 -2.52979,-11.49361 0.0514,-18.2869 2.28245,-6.00692 8.45886,-12.28691 12.97198,-13.18954 2.87686,-0.57537 3.06391,-0.88903 3.06391,-5.13778 0,-4.09536 -0.2253,-4.525 -2.37288,-4.525 -6.42922,0 -18.07232,8.84378 -22.04098,16.74172 -2.17736,4.33311 -4.82059,19.86518 -4.03272,23.69694 1.1012,5.35566 5.05318,10.39748 8.67854,11.07185 5.92619,1.10237 24.18629,2.31064 28.65761,1.89628 2.41426,-0.22374 8.17642,-0.40679 12.80479,-0.40679 z m 574.80564,-4.71547 c 6.36543,-1.97222 7.12793,-2.61677 10.14944,-8.57943 3.69441,-7.29058 2.79534,-20.19077 -2.05639,-29.50564 -1.98495,-3.81093 -11.1023,-8.99009 -18.13386,-10.30104 -6.12081,-1.14115 -18.86171,-1.5181 -23.65933,-0.69997 -4.6427,0.7917 -10.97635,5.94935 -13.04401,10.62205 -1.0515,2.37628 -3.01024,5.93912 -4.35276,7.91744 -2.84579,4.19351 -7.68148,19.28528 -7.21993,22.53278 0.22418,1.57735 1.10659,2.32042 3.01739,2.54093 4.00274,0.46193 6.51033,-1.32692 7.06045,-5.03672 1.33337,-8.99177 9.62048,-24.03558 14.75371,-26.7828 4.40059,-2.35512 14.38663,-2.36836 22.11643,-0.0293 4.05287,1.2264 8.08159,2.98741 8.95271,3.91335 0.87111,0.92593 2.51838,4.45084 3.6606,7.83312 1.59655,4.72765 1.8783,7.03302 1.2185,9.97016 -0.9303,4.14129 -4.93432,8.32055 -7.97166,8.32055 -1.04345,0 -3.04336,0.52223 -4.44424,1.16052 -2.09315,0.95369 -2.54705,1.8528 -2.54705,5.0453 l 0,3.8848 3.75,-0.62847 c 2.0625,-0.34566 6,-1.32559 8.75,-2.17763 z m -582.5,-13.28453 c 0.275,-3.025 0.275,-12.7 0,-21.5 -0.275,-8.8 -0.275,-23.875 0,-33.5 0.275,-9.625 0.5,-120.1 0.5,-245.5 l 0,-228 -4.90461,0.19114 c -2.76111,0.1076 -5.26738,0.76316 -5.73468,1.5 -0.92489,1.45834 -1.11752,73.07489 -0.92883,345.30886 0.0705,101.75 0.1147,185.58602 0.0982,186.30226 -0.0218,0.94546 1.40836,1.21944 5.21994,1 l 5.25001,-0.30226 0.5,-5.5 z m 566.62756,-39.25 c 0.86217,-1.23528 1.15316,-498.1944 0.30492,-520.75 l -0.43248,-11.5 -4.5,-0.0593 c -2.475,-0.0326 -5.16006,0.26488 -5.9668,0.66108 -1.28213,0.62967 -1.50565,32.80355 -1.7754,255.55929 -0.16973,140.16141 -0.0267,259.48273 0.31777,265.1585 0.56567,9.31944 0.83465,10.4036 2.7754,11.18661 3.22176,1.29984 8.2882,1.15992 9.27659,-0.25619 z M -141.28574,321.51137 c 5.21763,-2.21431 12.06241,-10.39118 15.19251,-18.14918 0.88763,-2.2 2.51409,-6.25 3.61436,-9 1.10026,-2.75 2.15633,-7.025 2.3468,-9.5 l 0.34633,-4.5 -3.62562,-0.30295 c -3.74654,-0.31305 -7.47225,2.02656 -6.28536,3.94698 0.88223,1.42748 -3.41949,12.52582 -7.14743,18.44021 -7.24226,11.48988 -16.23079,13.88162 -31.39284,8.35326 -3.27144,-1.19282 -6.57592,-2.90424 -7.34329,-3.80314 -2.29759,-2.69141 -4.70546,-9.9105 -4.70546,-14.10754 0,-7.33133 2.38101,-9.76687 12.5,-12.78626 2.53296,-0.7558 3.04832,-1.46693 3.31037,-4.56786 0.30396,-3.59695 0.23736,-3.6727 -3.22901,-3.6727 -1.94665,0 -6.5032,0.97296 -10.12567,2.16213 -6.1976,2.03453 -6.73917,2.46242 -9.17619,7.25 -4.13654,8.12634 -3.9836,19.93555 0.37869,29.24162 1.79289,3.82477 10.18431,9.55286 16.34181,11.15512 9.41588,2.45014 23.02701,2.37519 29,-0.15969 z m 540.07651,-1.39918 c 0.0421,-2.0625 0.22094,-4.49439 0.39746,-5.40421 0.17652,-0.90981 -1.49244,-3.59889 -3.70881,-5.97573 -8.20109,-8.79487 -11.57461,-21.60208 -11.70297,-44.42909 l -0.0622,-11.05902 -5.00991,-0.0756 c -4.50861,-0.068 -5.07131,0.16906 -5.62353,2.36927 -1.00899,4.02012 0.26548,24.21148 2.10341,33.32435 3.17561,15.74535 9.86519,28.03477 18.03003,33.12297 4.42291,2.75629 5.48937,2.3981 5.57651,-1.87297 z m 31.03606,0.65789 c 5.52589,-2.76605 12.61615,-11.25917 14.40492,-17.25505 2.5779,-8.641 3.03687,-18.91276 1.07465,-24.05075 -0.93357,-2.4445 -2.39557,-5.02399 -3.24891,-5.7322 -2.99454,-2.48525 -19.60224,-3.31057 -48.26767,-2.39866 -5.99983,0.19087 -7.0518,1.33056 -6.25284,6.77422 l 0.43874,2.98932 20.39441,-0.72829 c 22.99993,-0.82134 25.25093,-0.41859 27.15945,4.85934 1.57909,4.3669 1.49412,7.22918 -0.40439,13.62215 -1.89876,6.39381 -6.3927,12.30096 -11.03345,14.50315 -3.09424,1.46831 -3.37748,1.97776 -3.37748,6.07485 0,4.37226 0.0614,4.45737 2.75,3.81118 1.5125,-0.36352 4.37565,-1.47469 6.36257,-2.46926 z m -583.07166,-10.89424 c 1.35706,-0.012 1.50605,-3.26489 1.24876,-27.26365 -0.16069,-14.9875 -0.50247,-27.81251 -0.75953,-28.50001 -0.26771,-0.716 -2.18958,-1.25 -4.49875,-1.25 l -4.03139,0 -0.0392,4.75 c -0.0216,2.6125 -0.13406,15.25317 -0.25,28.09036 -0.22572,24.99296 -0.061,25.84146 4.78921,24.67001 1.1,-0.26568 2.69341,-0.4892 3.54091,-0.49671 z m 28.95909,-32.10326 c 1.925,-0.49458 4.85,-0.90057 6.5,-0.9022 5.25801,-0.005 16.89401,-3.22245 20.03123,-5.53847 3.1222,-2.30494 5.59369,-9.19953 5.16832,-14.41784 -0.17497,-2.14659 -0.70285,-2.4607 -4.28578,-2.55025 -4.00373,-0.10008 -4.1206,-0.005 -5.7892,4.6927 -1.14967,3.23697 -2.60227,5.25989 -4.47083,6.22616 -3.78396,1.95677 -16.32935,3.54986 -30.23039,3.83884 l -11.57664,0.24067 -0.14216,5.27954 -0.14216,5.27955 10.7188,-0.62473 c 5.89535,-0.3436 12.29381,-1.02939 14.21881,-1.52397 z m 492.5,-5.44482 c 0,-3.67019 -0.21202,-3.94069 -3.74338,-4.77583 -5.99875,-1.41867 -8.26108,-5.04291 -9.56923,-15.32985 -0.61968,-4.87294 -1.42153,-13.73308 -1.7819,-19.6892 -0.72065,-11.91099 -0.99149,-12.34615 -6.98437,-11.22188 l -3.56382,0.66858 0.49342,6.6913 c 1.59327,21.60671 4.95593,39.79449 8.07836,43.69385 2.36909,2.95858 10.66889,5.52552 14.57092,4.50647 2.1264,-0.55533 2.5,-1.23431 2.5,-4.54344 z m 45.33081,-5.04753 c 1.07084,-0.33578 1.26921,-5.10561 1.0155,-24.41767 l -0.31531,-24.00038 -4.6405,0 c -4.39736,0 -4.67325,0.16374 -5.2655,3.125 -0.34375,1.71875 -0.625,12.92593 -0.625,24.90484 l 0,21.77985 4.25,-0.48718 c 2.3375,-0.26794 4.84886,-0.67495 5.58081,-0.90446 z m -532.80217,-5.91805 c 0.33018,-1.65 0.40298,-11.2125 0.16179,-21.25 l -0.43853,-18.25 -4.37595,0 -4.37595,0 0,21.5575 0,21.5575 4.21416,-0.3075 c 3.78726,-0.27635 4.27498,-0.61141 4.81448,-3.3075 z m 515.72136,-11.49778 4.25,-0.002 0,-4.59595 0,-4.59595 -21.25,0.49224 c -20.96793,0.48571 -21.25442,0.52152 -21.58288,2.69766 -0.18308,1.21298 -0.0624,3.28322 0.26826,4.60054 l 0.60113,2.39511 16.73175,-0.49461 c 9.20245,-0.27203 18.64424,-0.49561 20.98174,-0.49682 z m -528.2022,-1.07955 c 0.34496,-0.55816 0.32556,-3.20806 -0.0431,-5.88865 l -0.67032,-4.87381 -15.16718,0.53045 c -18.88322,0.66041 -23.16392,-0.24194 -25.29029,-5.33107 -0.87903,-2.10381 -1.35202,-5.80338 -1.17436,-9.18542 l 0.29747,-5.66284 4.80175,-0.8733 4.80175,-0.8733 -0.30175,-4.13236 -0.30175,-4.13237 -6.15133,0.006 c -7.15316,0.007 -9.10952,1.3031 -12.48334,8.27247 -2.69295,5.56289 -2.85683,14.36606 -0.3596,19.31605 2.21424,4.38905 7.30445,9.80519 10.49427,11.16622 3.98963,1.7023 11.47617,2.41753 26.7103,2.5518 8.67158,0.0764 14.45476,-0.27031 14.8375,-0.88959 z m 44.12273,0.0839 c 13.47421,-1.75082 29.41292,-8.43538 35.86265,-15.04051 3.58188,-3.66817 6.84774,-10.25176 5.66982,-11.42968 -0.29498,-0.29499 -3.17247,-0.53634 -6.39442,-0.53634 -5.27045,0 -5.95001,0.2418 -6.77453,2.41045 -1.80711,4.75305 -10.09106,9.52748 -22.03405,12.69927 -1.925,0.51124 -10.25,1.2119 -18.5,1.55704 -9.13996,0.38236 -15.28702,1.05837 -15.73469,1.73038 -0.92111,1.38271 -0.9946,8.04024 -0.0986,8.93619 0.97457,0.97457 19.66736,0.75643 28.00387,-0.32681 z m 430.32947,-1.92474 c 0,-4.20871 -0.95041,-6.08179 -3.08593,-6.08179 -4.19509,0 -17.60301,-5.39727 -21.97819,-8.84718 -7.75872,-6.11788 -8.38101,-7.41497 -8.21461,-17.12261 0.16572,-9.66769 2.68887,-17.88858 6.45284,-21.02453 2.71645,-2.26321 11.3038,-5.00568 15.67403,-5.00568 4.33224,0 7.98365,3.61866 10.05088,9.96072 1.69934,5.21341 1.95205,5.47748 5.58003,5.83094 l 3.80009,0.37023 -0.68306,-5.14912 c -1.21689,-9.17337 -3.79616,-14.17901 -8.97197,-17.41206 -4.10272,-2.56275 -5.51925,-2.89021 -12.20311,-2.82096 -21.275,0.22041 -29.52127,9.96539 -29.80361,35.22025 -0.1632,14.59749 1.84336,18.69042 12.65757,25.81861 6.43359,4.2407 20.13622,9.05403 25.97504,9.12426 4.59458,0.0553 4.75,-0.0384 4.75,-2.86108 z m 91.91007,-0.44388 c 5.4761,-2.58554 7.90436,-9.28102 8.02877,-22.13791 0.0652,-6.74241 -2.16527,-12.34652 -5.58219,-14.02513 -1.17884,-0.57912 -2.75384,-1.55882 -3.5,-2.17711 -0.92915,-0.76992 -8.4467,-1.07273 -23.85665,-0.96096 l -22.5,0.1632 0,4.5 0,4.5 21.70311,0.58864 c 15.45092,0.41906 22.14873,0.95847 23.25,1.87244 1.55958,1.29434 2.13322,9.25543 0.97695,13.55815 -0.78082,2.90559 -6.27832,6.31735 -10.93006,6.78322 -3.88654,0.38923 -4.00862,0.51623 -4.304,4.47744 -0.28248,3.78834 -0.10556,4.10741 2.5,4.50879 3.84434,0.5922 11.29656,-0.27328 14.21407,-1.65077 z m -54.73811,-9.248 4.4511,-0.61009 -0.43904,-16.87496 c -0.48725,-18.72767 0.16992,-22.00229 4.90717,-24.45202 1.54522,-0.79906 4.82418,-1.45284 7.28657,-1.45284 3.65734,0 4.86054,0.48749 6.57139,2.66248 1.15187,1.46437 2.36414,3.73757 2.69393,5.05157 0.52824,2.1047 1.09109,2.35319 4.72827,2.08752 l 4.12865,-0.30157 -0.006,-6.15133 c -0.007,-7.08107 -1.31876,-9.11711 -7.94216,-12.32344 -2.85344,-1.38146 -6.20075,-2.02523 -10.53002,-2.02523 -5.33403,0 -7.08624,0.47454 -10.98137,2.97404 -10.35098,6.64221 -11.5576,10.08225 -11.92352,33.9934 -0.23193,15.15575 -0.0462,18.03256 1.16399,18.03256 0.79196,0 3.44293,-0.27454 5.89104,-0.61009 z m -532.54656,-2.15522 c 0.74475,-0.4862 1.16653,-5.97723 1.24702,-16.23469 0.13708,-17.46865 0.91864,-26.90841 2.38033,-28.75 1.04835,-1.32081 9.97137,-1.61675 12.95669,-0.42971 3.16244,1.25746 6.79056,7.33445 6.79056,11.37399 0,3.76607 0.0412,3.80572 3.95469,3.80572 3.72934,0 3.99217,-0.19982 4.61254,-3.50667 1.00068,-5.3341 -0.39252,-12.13224 -3.16052,-15.42182 -3.35571,-3.98805 -8.31448,-5.47694 -18.40671,-5.52668 -10.34774,-0.051 -13.65004,1.46197 -16.75332,7.67569 -2.02769,4.06006 -2.19668,5.8405 -2.19668,23.144 0,10.31006 -0.18341,19.05829 -0.40759,19.44052 -0.22417,0.38223 -0.0249,1.70746 0.44278,2.94496 0.64589,1.70899 1.63957,2.24632 4.13259,2.23469 1.80522,-0.008 3.78865,-0.34592 4.40762,-0.75 z m 63.53952,-0.23469 c 0.53362,0 0.79409,-8.85612 0.625,-21.25 -0.21195,-15.53528 0.0435,-21.83221 0.94973,-23.41491 0.82904,-1.44785 2.90144,-2.52131 6.25675,-3.2409 10.21812,-2.19139 23.58022,5.14873 25.52956,14.02402 0.65163,2.96682 3.07095,4.1939 6.97404,3.53724 4.60265,-0.77436 2.51218,-9.20111 -4.10966,-16.56619 -7.74881,-8.61854 -14.1705,-11.1887 -28.11402,-11.25208 -8.53782,-0.0388 -13.37316,2.30839 -15.32612,7.43972 -0.78225,2.05531 -1.4006,11.68975 -1.70666,26.59103 -0.52437,25.53051 -0.49116,25.69011 5.13146,24.6592 1.58125,-0.28992 3.28671,-0.52713 3.78992,-0.52713 z m 350.32432,-15 34.32566,0 0.39489,-5.75 c 0.21719,-3.1625 0.20527,-6.32662 -0.0265,-7.03137 -0.33903,-1.03099 -11.78039,-1.17048 -58.55234,-0.71384 -31.97201,0.31214 -113.25595,0.75087 -180.63095,0.97496 -67.375,0.22409 -127.0605,0.43282 -132.63445,0.46384 l -10.13445,0.0564 0.0753,4.9932 c 0.0583,3.86174 0.47742,5.12081 1.84983,5.5564 0.97598,0.30976 11.12758,0.5396 22.55912,0.51075 40.45309,-0.10209 276.85094,0.95469 281.28462,1.25744 2.475,0.169 5.0993,0.16664 5.83179,-0.005 0.73251,-0.17185 16.77836,-0.31249 35.65748,-0.31249 z m 83.51076,-2.53049 c 12.925,-0.31375 23.8682,-0.93845 24.31822,-1.38821 0.45002,-0.44976 0.67502,-2.49106 0.5,-4.53623 l -0.31822,-3.71849 -11.5,0.0647 c -6.325,0.0356 -18.8125,0.0893 -27.75,0.11923 l -16.25,0.0545 -0.11848,2.71748 c -0.3098,7.10549 0.49791,8.55283 4.37904,7.84678 1.78169,-0.32413 13.81444,-0.84603 26.73944,-1.15979 z m -446,-4.47287 0,-4.97287 -23.99861,0.23812 -23.99862,0.23811 -0.001,4.70661 -10e-4,4.7066 24,0.0282 24,0.0282 0,-4.97287 z"
       id="path4873"
       inkscape:connector-curvature="0" />
  </g>
</svg>
